<svg width="20" height="20" viewBox="0 0 20 20" fill="none" xmlns="http://www.w3.org/2000/svg">
<path d="M4.08521 15.8477C3.66921 15.4312 3.18521 14.6153 3.18921 13.6843C3.19221 12.9615 3.50321 12.3058 4.14021 11.6801C5.52622 10.3147 6.94022 10.3327 8.34122 11.7352C9.27823 12.6732 10.0262 14.1608 8.26722 15.9217C6.23622 17.9549 4.10621 15.8687 4.08521 15.8477ZM11.5552 10.6751C11.7452 10.634 11.9292 10.5569 12.0762 10.4088L15.3122 7.17126C15.6472 6.8359 16.1902 6.8359 16.5262 7.17126L17.1482 7.79293C17.6372 8.28347 18.4312 8.28347 18.9212 7.79293L19.6332 7.08016C20.1222 6.58963 20.1222 5.79477 19.6332 5.30424L18.9472 4.6185C18.6482 4.31817 18.6482 3.83165 18.9472 3.53132L19.6222 2.85559C20.1112 2.36606 20.1112 1.5702 19.6222 1.08067L18.9102 0.367898C18.4212 -0.122633 17.6262 -0.122633 17.1372 0.367898L9.59123 7.92107C9.44123 8.07124 9.36423 8.25844 9.32323 8.45265C7.20122 7.09418 4.42922 6.91899 1.90321 9.40368C-1.1648 12.4229 -0.0227948 16.2501 1.82921 18.1051C3.68321 19.9601 7.51122 21.1934 10.5222 18.1792C13.0312 15.6675 12.9242 12.8224 11.5552 10.6751Z" fill="#FEE43A"/>
</svg>
