<svg width="20" height="20" viewBox="0 0 20 20" fill="none" xmlns="http://www.w3.org/2000/svg">
<path d="M18.219 4.62921C19.0696 4.62921 19.7947 5.25763 19.8961 6.10613C19.9544 6.59081 20 7.15562 20 7.73825C20 8.32724 19.9531 8.89714 19.8948 9.38436C19.7794 10.3359 19.2014 11.1628 18.3458 11.5877C17.4103 12.0533 15.9627 12.6677 13.979 13.216C12.2322 13.6981 10.6452 14.0416 9.43466 14.2718C8.09608 14.5288 6.79554 13.7261 6.40259 12.4171L3.95614 4.23867C3.8053 3.73619 3.34516 3.39272 2.82292 3.39272H1.18266C0.529852 3.39272 0 2.86098 0 2.20584V1.18688C0 0.531742 0.529852 0 1.18266 0H5.33528C5.85626 0 6.31639 0.34347 6.46723 0.844682L7.35201 3.78453C7.50285 4.28574 7.96172 4.62921 8.48396 4.62921H18.219ZM5.59792 17.8807C5.59792 16.709 6.54481 15.7601 7.71099 15.7601C8.87717 15.7601 9.82406 16.709 9.82406 17.8807C9.82406 19.051 8.87717 20 7.71099 20C6.54481 20 5.59792 19.051 5.59792 17.8807ZM14.26 17.8807C14.26 16.709 15.2069 15.7601 16.3731 15.7601C17.5392 15.7601 18.4861 16.709 18.4861 17.8807C18.4861 19.051 17.5392 20 16.3731 20C15.2069 20 14.26 19.051 14.26 17.8807Z" fill="#FEE43A"/>
</svg>
