<svg width="21" height="15" viewBox="0 0 21 15" fill="none" xmlns="http://www.w3.org/2000/svg">
<path fill-rule="evenodd" clip-rule="evenodd" d="M1.5 0C0.67157 0 0 0.67157 0 1.5C0 2.32843 0.67157 3 1.5 3C2.32843 3 3 2.32843 3 1.5C3 0.67157 2.32843 0 1.5 0ZM6.25 0.25C5.55963 0.25 5 0.809647 5 1.5C5 2.19035 5.55963 2.75 6.25 2.75H19.75C20.4404 2.75 21 2.19035 21 1.5C21 0.809647 20.4404 0.25 19.75 0.25H6.25ZM5 7.5C5 6.80965 5.55963 6.25 6.25 6.25H19.75C20.4404 6.25 21 6.80965 21 7.5C21 8.19035 20.4404 8.75 19.75 8.75H6.25C5.55963 8.75 5 8.19035 5 7.5ZM1.5 6C0.67157 6 0 6.67157 0 7.5C0 8.32843 0.67157 9 1.5 9C2.32843 9 3 8.32843 3 7.5C3 6.67157 2.32843 6 1.5 6ZM5 13.5C5 12.8096 5.55963 12.25 6.25 12.25H13.75C14.4404 12.25 15 12.8096 15 13.5C15 14.1904 14.4404 14.75 13.75 14.75H6.25C5.55963 14.75 5 14.1904 5 13.5ZM1.5 12C0.67157 12 0 12.6716 0 13.5C0 14.3284 0.67157 15 1.5 15C2.32843 15 3 14.3284 3 13.5C3 12.6716 2.32843 12 1.5 12Z" fill="#FDFFFF"/>
</svg>
